<svg xmlns="http://www.w3.org/2000/svg" xmlns:xlink="http://www.w3.org/1999/xlink" width="30" height="31" version="1.1" viewBox="0 0 30 31"><title>winds</title><desc>Created with Sketch.</desc><g id="winds_landing-copy-2" fill="none" fill-rule="evenodd" stroke="none" stroke-linecap="round" stroke-linejoin="round" stroke-width="1" transform="translate(-215.000000, -63.000000)"><g id="LOGO" stroke="#44BC75" stroke-width="2" transform="translate(216.000000, 64.000000)"><g id="winds-word-logo"><g id="winds"><path id="Stroke-6" d="M21.0761809,4.07068421 C21.1563819,2.5961614 19.9782915,0.114880702 17.0560804,0.00050877193 C17.021809,-0.000814035088 16.9875377,0.000814035088 16.9536683,0.00386666667 C11.2794975,0.511824561 12.2521608,8.17708421 17.0560804,8.14085965 C23.3546734,8.09334035 27.1063317,8.14085965 27.1063317,8.14085965"/><path id="Stroke-7" d="M8.01085427,10.1759474 C8.09105528,8.70142456 6.91296482,6.22014386 3.99075377,6.10577193 C3.95648241,6.10444912 3.92221106,6.10607719 3.88834171,6.10912982 C-1.78582915,6.61708772 -0.813165829,14.2823474 3.99075377,14.2461228 C10.2893467,14.1986035 27.1063317,14.2461228 27.1063317,14.2461228"/><path id="Stroke-8" d="M13.0359799,24.4211544 C13.1161809,25.8956772 11.9380905,28.3769579 9.0158794,28.4913298 C8.98160804,28.4927544 8.94733668,28.4910246 8.91346734,28.4879719 C3.23929648,27.980014 4.2119598,20.3148561 9.0158794,20.3509789 C15.3144724,20.3984982 27.1063317,20.3509789 27.1063317,20.3509789"/></g></g></g></g></svg>