<svg xmlns="http://www.w3.org/2000/svg" xmlns:xlink="http://www.w3.org/1999/xlink" width="48" height="48" version="1.1" viewBox="0 0 48 48"><defs><linearGradient id="linearGradient-1" x1="50%" x2="50%" y1="0%" y2="100%"><stop offset="0%" stop-color="#2DCE6F" stop-opacity=".5"/><stop offset="100%" stop-color="#4DB678" stop-opacity=".5"/></linearGradient><circle id="path-2" cx="20" cy="20" r="20"/><filter id="filter-3" width="135%" height="135%" x="-17.5%" y="-12.5%" filterUnits="objectBoundingBox"><feOffset dx="0" dy="2" in="SourceAlpha" result="shadowOffsetOuter1"/><feGaussianBlur in="shadowOffsetOuter1" result="shadowBlurOuter1" stdDeviation="2"/><feColorMatrix in="shadowBlurOuter1" type="matrix" values="0 0 0 0 0 0 0 0 0 0 0 0 0 0 0 0 0 0 0.149711277 0"/></filter></defs><g id="Catalyst" fill="none" fill-rule="evenodd" stroke="none" stroke-width="1"><g id="Electron---Dashboard" transform="translate(-1101.000000, -926.000000)"><g id="Podcast-Player" transform="translate(105.000000, 918.000000)"><g id="play" transform="translate(1000.000000, 10.000000)"><g id="Oval-7"><use fill="#000" fill-opacity="1" filter="url(#filter-3)" xlink:href="#path-2"/><use fill="#4DB678" fill-rule="evenodd" xlink:href="#path-2"/><use fill="url(#linearGradient-1)" fill-rule="evenodd" xlink:href="#path-2"/></g><path id="Shape" fill="#FFF" fill-rule="nonzero" d="M25.7691964,18.7007813 L16.1370536,12.9678571 C16.0194196,12.8986607 15.8983259,12.8571429 15.759933,12.8571429 C15.3828125,12.8571429 15.0748884,13.1685268 15.0748884,13.5491071 L15.0714286,13.5491071 L15.0714286,25.4508929 L15.0748884,25.4508929 C15.0748884,25.8314732 15.3828125,26.1428571 15.759933,26.1428571 C15.9017857,26.1428571 16.0194196,26.0944196 16.147433,26.0252232 L25.7691964,20.2992188 C25.9975446,20.1089286 26.1428571,19.8217634 26.1428571,19.5 C26.1428571,19.1782366 25.9975446,18.8945313 25.7691964,18.7007813 Z"/></g></g></g></g></svg>